# xmcd
#
# Track frame offsets:
#	150
#	15027
#	27140
#	44372
#	56747
#	70542
#	89297
#	101602
#	112402
#	128697
#	144207
#	156435
#	173440
#	191040
#
# Disc length: 2716 seconds
#
# Revision: 2
# Processed by: cddbd v1.5.2PL0 Copyright (c) Steve Scherf et al.
# Submitted via: EasyCDDAExtractor 16.0.6.1
#
DISCID=af0a9a0e
DTITLE=DEÓ - DEÓ EM RITMO DE FORRÓ VOL.4
DYEAR=2006
DGENRE=FORRÓ
TTITLE0=BOI É BOI
TTITLE1=OI LOIRINHA
TTITLE2=FAZ MAIS PAINHO
TTITLE3=QUERO CASAR
TTITLE4=SUCESSO NACIONAL
TTITLE5=VOLTE LOGO AMOR
TTITLE6=MEXE MAIS
TTITLE7=A PESQUISA
TTITLE8=4 ESTAÇÕES
TTITLE9=VIXE MARIA
TTITLE10=ANA MARIA
TTITLE11=A CABRA E O BODE
TTITLE12=A SAFADINHA DO LUGAR
TTITLE13=MINHA HISTÓRIA
EXTD=
EXTT0=
EXTT1=
EXTT2=
EXTT3=
EXTT4=
EXTT5=
EXTT6=
EXTT7=
EXTT8=
EXTT9=
EXTT10=
EXTT11=
EXTT12=
EXTT13=
PLAYORDER=
